<?xml version="1.0" encoding="UTF-8" standalone="no"?>
        <svg 
    viewBox="13.916015625 -80.140625 435.05859375 52.44140625"
    width="421.142578125"
    height="121.58203125"
   xmlns="http://www.w3.org/2000/svg"
   xmlns:svg="http://www.w3.org/2000/svg">
   <path d="M89.06-99.17L89.06-99.17Q89.36-109.42 90.38-109.42L90.38-109.42Q90.38-109.42 90.38-109.42L90.38-109.42Q90.97-110.74 95.00-110.96Q99.02-111.18 112.50-111.18L112.50-111.18L133.30-111.18L134.91-108.84Q135.94-107.81 135.94-106.35L135.94-106.35Q135.94-105.91 135.72-104.74Q135.50-103.56 133.15-97.56L133.15-97.56Q131.54-93.75 129.57-89.14Q127.59-84.52 125.68-81.45L125.68-81.45Q124.07-78.22 123.05-76.03Q122.02-73.83 122.02-73.24L122.02-73.24Q122.02-72.66 122.83-71.26Q123.63-69.87 124.66-67.97L124.66-67.97Q127.88-62.99 129.93-57.06Q131.98-51.12 133.89-42.33L133.89-42.33Q135.64-34.57 135.64-29.88L135.64-29.88Q135.64-27.83 134.91-24.98Q134.18-22.12 129.20-22.12L129.20-22.12Q128.91-22.12 128.61-22.12L128.61-22.12Q125.24-22.41 117.19-25.12Q109.13-27.83 104.15-30.76L104.15-30.76Q102.83-31.64 101.95-31.93Q101.07-32.23 100.78-32.23L100.78-32.23Q100.49-32.23 100.34-32.08L100.34-32.08Q100.34-31.79 100.27-26.44Q100.20-21.09 100.20-13.18L100.20-13.18Q100.20-1.76 99.90 2.20Q99.61 6.15 98.88 6.88L98.88 6.88Q97.12 8.35 95.21 8.35L95.21 8.35Q95.07 8.35 93.90 8.28Q92.72 8.20 91.11 6.45L91.11 6.45Q89.79 6.45 89.43-3.37Q89.06-13.18 89.06-51.56L89.06-51.56Q88.92-70.17 88.92-82.03L88.92-82.03Q88.92-93.90 89.06-99.17ZM15.23-14.50L15.23-14.50Q15.97-14.94 17.29-15.45Q18.60-15.97 20.21-16.26L20.21-16.26L23.73-16.85L23.14-102.54L25.20-103.86Q27.39-105.18 37.65-107.30Q47.90-109.42 60.35-111.18L60.35-111.18Q63.28-111.77 65.33-112.13Q67.38-112.50 67.68-112.79L67.68-112.79Q68.41-113.23 69.87-113.23L69.87-113.23Q70.61-113.23 72.58-113.01Q74.56-112.79 75.88-111.77L75.88-111.77Q77.20-110.16 77.27-108.98Q77.34-107.81 77.34-107.67L77.34-107.67Q77.34-105.76 76.17-104.30L76.17-104.30Q75.29-102.98 66.36-101.29Q57.42-99.61 42.63-97.56L42.63-97.56Q35.60-96.97 34.72-95.65Q33.84-94.34 33.84-90.38L33.84-90.38Q33.84-88.33 33.98-85.40L33.98-85.40Q34.28-81.15 34.50-78.00Q34.72-74.85 35.01-74.56L35.01-74.56Q35.60-74.27 41.89-74.12Q48.19-73.97 57.42-73.97L57.42-73.97Q66.36-74.12 71.34-74.12L71.34-74.12Q75-74.12 77.56-73.97Q80.13-73.83 80.57-72.22L80.57-72.22Q81.88-70.02 81.96-69.14Q82.03-68.26 82.03-68.12L82.03-68.12Q82.03-66.80 80.86-65.04L80.86-65.04Q80.13-64.01 78.30-63.65Q76.46-63.28 72.51-62.99L72.51-62.99L65.63-62.40L65.33-43.95Q65.19-37.79 65.19-33.98L65.19-33.98Q65.19-30.18 65.41-28.20Q65.63-26.22 66.21-26.22L66.21-26.22Q66.36-26.22 66.65-26.37L66.65-26.37Q70.31-27.10 73.10-27.25Q75.88-27.39 76.90-27.54L76.90-27.54Q79.69-27.39 81.15-26.81L81.15-26.81Q83.06-25.49 83.13-24.02Q83.20-22.56 83.20-22.41L83.20-22.41Q83.20-19.63 81.74-18.16L81.74-18.16Q80.86-17.87 78.08-17.07Q75.29-16.26 71.34-15.82L71.34-15.82Q60.64-14.21 49.95-12.23Q39.26-10.25 33.69-9.23L33.69-9.23Q21.83-6.30 20.21-6.15Q18.60-6.01 18.16-6.01L18.16-6.01Q16.11-6.01 15.23-7.32L15.23-7.32Q13.92-8.94 13.92-11.06Q13.92-13.18 15.23-14.50ZM100.49-48.05L100.49-48.05Q100.63-43.80 101.66-43.80L101.66-43.80Q101.81-43.80 101.95-43.95L101.95-43.95Q102.83-43.65 104.81-42.92Q106.79-42.19 109.13-40.58L109.13-40.58Q113.09-38.23 117.19-36.84Q121.29-35.45 122.61-35.45L122.61-35.45Q123.19-35.45 123.34-35.60L123.34-35.60Q123.34-35.74 123.34-36.04L123.34-36.04Q123.34-37.94 121.66-44.75Q119.97-51.56 118.07-56.10L118.07-56.10Q117.04-58.45 115.28-61.23Q113.53-64.01 111.77-65.92L111.77-65.92Q110.16-67.97 108.98-69.43Q107.81-70.90 107.81-71.19L107.81-71.19Q107.81-71.63 108.69-73.39Q109.57-75.15 111.18-77.49L111.18-77.49Q112.79-80.13 114.62-83.64Q116.46-87.16 118.07-90.38L118.07-90.38Q120.85-95.80 120.85-98.00L120.85-98.00Q120.85-98.73 120.26-99.54Q119.68-100.34 113.96-100.34L113.96-100.34Q112.50-100.34 110.45-100.20L110.45-100.20L100.20-99.90L100.20-71.92Q100.20-52.73 100.49-48.05ZM34.72-62.99L34.72-42.63Q34.72-33.98 34.86-28.05Q35.01-22.12 35.60-21.83L35.60-21.83Q35.89-21.83 36.47-21.83L36.47-21.83Q38.53-21.83 45.04-22.78Q51.56-23.73 53.76-24.46L53.76-24.46Q54.05-24.76 54.27-29.74Q54.49-34.72 54.49-43.95L54.49-43.95L54.49-62.99L34.72-62.99ZM166.85-6.01L166.85-6.01Q170.36-10.99 174.54-21.09Q178.71-31.20 181.20-39.99L181.20-39.99Q184.28-52.59 185.60-62.26Q186.91-71.92 186.91-86.57L186.91-86.57Q187.21-97.41 187.57-102.17Q187.94-106.93 188.53-107.23L188.53-107.23Q191.60-107.81 202.29-107.81L202.29-107.81Q209.18-107.81 227.20-107.37Q245.21-106.93 249.76-105.91L249.76-105.91Q250.20-105.32 250.63-95.87Q251.07-86.43 251.51-66.36L251.51-66.36Q251.81-36.04 252.83-29.00Q253.86-21.97 258.98-18.60L258.98-18.60Q261.77-15.97 266.67-13.18Q271.58-10.40 273.63-10.11L273.63-10.11Q274.22-10.40 274.51-11.57Q274.80-12.74 274.80-14.94L274.80-14.94Q274.80-18.60 275.83-20.58Q276.86-22.56 279.49-23.14L279.49-23.14Q280.08-23.29 280.52-23.29L280.52-23.29Q283.01-23.29 284.55-20.00Q286.08-16.70 286.08-9.08L286.08-9.08Q286.23-6.74 286.23-4.98L286.23-4.98Q286.23-0.44 285.06 0.66Q283.89 1.76 280.81 1.76L280.81 1.76Q278.32 1.76 274.51 1.17L274.51 1.17Q266.60 0.59 261.18-1.90Q255.76-4.39 250.49-9.67L250.49-9.67Q244.48-14.36 242.87-22.71Q241.26-31.05 240.53-60.21L240.53-60.21L239.36-95.65L229.69-95.80Q225.44-95.80 219.65-95.95Q213.87-96.09 209.03-96.09L209.03-96.09L198.34-96.09L197.75-79.54Q197.46-70.61 196.66-63.87Q195.85-57.13 194.53-50.24L194.53-50.24Q189.55-25.93 181.93-9.74Q174.32 6.45 168.60 6.45L168.60 6.45Q168.46 6.45 168.16 6.45L168.16 6.45Q164.21 5.13 163.99 3.44Q163.77 1.76 163.77 1.46L163.77 1.46Q163.77-1.32 166.85-6.01ZM204.93-67.97L204.93-67.97Q205.08-68.99 205.74-70.17Q206.40-71.34 206.98-71.92L206.98-71.92Q208.30-72.95 209.91-72.95L209.91-72.95Q211.52-72.95 214.38-71.34Q217.24-69.73 225.15-61.82L225.15-61.82Q231.30-56.10 232.18-54.05Q233.06-52.00 233.06-50.98L233.06-50.98Q233.06-49.22 231.45-47.90L231.45-47.90Q229.83-46.29 227.78-46.29L227.78-46.29Q226.90-46.29 224.85-46.95Q222.80-47.61 217.82-52.88L217.82-52.88Q215.19-55.52 212.26-58.15Q209.33-60.79 207.71-62.11L207.71-62.11Q205.66-64.01 205.15-64.89Q204.64-65.77 204.64-66.50L204.64-66.50Q204.64-67.24 204.93-67.97ZM355.37-78.52L355.37-78.52Q356.54-80.86 361.08-86.13L361.08-86.13Q362.84-88.33 366.14-92.43Q369.43-96.53 372.36-100.63L372.36-100.63Q375.59-104.59 378.08-107.67Q380.57-110.74 381.59-111.18L381.59-111.18Q383.06-112.21 389.50-112.21L389.50-112.21Q390.23-112.21 394.63-112.13Q399.02-112.06 408.84-111.04L408.84-111.04Q410.60-111.04 413.09-110.60Q415.58-110.16 418.07-109.86L418.07-109.86Q422.02-109.72 424.73-107.96Q427.44-106.20 427.73-104.15L427.73-104.15Q427.44-100.20 423.41-91.77Q419.38-83.35 414.26-76.17L414.26-76.17Q405.91-64.89 400.78-57.64Q395.65-50.39 395.36-49.22L395.36-49.22Q395.36-49.07 398.44-48.85Q401.51-48.63 404.59-48.63L404.59-48.63Q407.52-48.63 411.47-48.78L411.47-48.78Q414.40-48.78 416.89-48.78L416.89-48.78Q424.95-48.78 429.49-47.97Q434.03-47.17 434.91-44.53L434.91-44.53Q435.06-43.51 435.06-41.31L435.06-41.31Q435.06-36.91 434.33-25.42Q433.59-13.92 432.28-6.01L432.28-6.01Q431.69-3.08 431.18-1.03Q430.66 1.03 430.08 1.32L430.08 1.32Q427.29 2.34 415.72 2.78Q404.15 3.22 398.58 3.22L398.58 3.22Q393.02 3.22 389.50 2.93L389.50 2.93Q382.91 2.64 381.08-0.51Q379.25-3.66 379.25-16.11L379.25-16.11Q378.96-22.85 378.44-27.10Q377.93-31.35 377.64-32.08L377.64-32.08Q377.34-32.23 377.05-32.23L377.05-32.23Q376.32-32.23 374.85-31.27Q373.39-30.32 369.73-26.81L369.73-26.81Q365.04-21.83 363.50-21.24Q361.96-20.65 361.23-20.65L361.23-20.65Q359.62-20.65 358.15-22.12L358.15-22.12Q356.54-23.73 356.54-25.93L356.54-25.93Q356.54-27.39 357.71-30.40Q358.89-33.40 364.01-36.91L364.01-36.91Q366.80-38.67 371.34-42.63Q375.88-46.58 378.52-49.22L378.52-49.22Q382.91-54.49 385.84-57.93Q388.77-61.38 388.77-61.96L388.77-61.96Q388.77-62.26 386.65-64.31Q384.52-66.36 381.59-69.29L381.59-69.29Q377.64-72.95 376.10-75.07Q374.56-77.20 374.56-78.52L374.56-78.52Q374.56-80.42 375.59-81.59Q376.61-82.76 378.96-83.50L378.96-83.50Q379.10-83.50 379.39-83.50L379.39-83.50Q380.42-83.50 382.18-82.47Q383.94-81.45 387.89-77.78L387.89-77.78Q391.11-75.15 393.38-73.39Q395.65-71.63 395.80-71.63L395.80-71.63Q397.12-72.51 402.69-79.25Q408.25-85.99 411.47-90.67L411.47-90.67Q412.79-92.58 413.53-94.41Q414.26-96.24 414.84-97.56L414.84-97.56Q414.99-98.14 414.99-98.73L414.99-98.73Q414.99-99.32 414.62-99.76Q414.26-100.20 412.21-100.49L412.21-100.49Q410.89-100.93 406.79-101.22Q402.69-101.51 397.71-101.81L397.71-101.81L386.43-102.25L384.23-98.58Q383.20-96.68 379.91-92.21Q376.61-87.74 372.36-82.47L372.36-82.47Q366.36-74.85 364.09-72.73Q361.82-70.61 360.21-70.61L360.21-70.61Q359.91-70.61 359.77-70.61L359.77-70.61Q357.86-70.61 356.98-71.26Q356.10-71.92 355.52-73.83L355.52-73.83Q354.79-75 354.79-76.32L354.79-76.32Q354.79-77.34 355.37-78.52ZM392.14-22.41L392.14-22.41L392.43-8.64L421.44-8.64L422.02-12.89Q422.17-14.79 422.61-18.82Q423.05-22.85 423.34-27.39L423.34-27.39L424.07-37.35L408.98-37.35Q402.69-37.35 398.07-37.28Q393.46-37.21 392.72-36.91L392.72-36.91Q392.14-36.33 392.07-34.13Q391.99-31.93 391.99-30.32L391.99-30.32Q391.99-27.25 392.14-22.41ZM315.38 0.29L315.38 0.29Q315.97-1.61 318.90-3.66L318.90-3.66Q320.21-4.39 322.85-6.52Q325.49-8.64 328.42-10.84L328.42-10.84Q331.20-13.18 333.98-15.01Q336.77-16.85 338.09-17.58L338.09-17.58Q340.43-18.90 342.19-18.90L342.19-18.90Q342.63-18.90 343.80-18.68Q344.97-18.46 346.00-16.26L346.00-16.26Q346.73-15.23 346.73-14.06L346.73-14.06Q346.73-13.04 345.85-11.28Q344.97-9.52 341.31-6.59L341.31-6.59Q339.11-4.98 336.91-3.30Q334.72-1.61 333.40-0.44L333.40-0.44Q329.44 2.64 325.34 4.76Q321.24 6.88 318.90 7.18L318.90 7.18Q317.87 7.18 317.07 6.67Q316.26 6.15 315.38 4.54L315.38 4.54Q315.09 3.37 315.09 2.34L315.09 2.34Q315.09 1.32 315.38 0.29ZM319.19-111.47L319.19-111.47Q320.21-112.21 322.56-112.21L322.56-112.21Q323.73-112.21 326.81-111.84Q329.88-111.47 338.09-109.72L338.09-109.72Q344.68-108.11 347.75-106.27Q350.83-104.44 350.83-102.25L350.83-102.25Q350.83-100.49 348.93-98.88Q347.02-97.27 344.97-96.97L344.97-96.97Q341.02-97.27 331.93-99.54Q322.85-101.81 319.92-103.27L319.92-103.27Q317.87-104.88 317.72-106.35Q317.58-107.81 317.58-108.25L317.58-108.25Q317.58-110.30 319.19-111.47ZM315.97-81.74L315.97-81.74Q316.55-84.08 318.90-84.81L318.90-84.81Q319.63-85.40 320.36-85.47Q321.09-85.55 321.39-85.55L321.39-85.55Q321.97-85.55 322.27-85.40L322.27-85.40Q322.85-85.40 324.17-85.03Q325.49-84.67 326.51-84.38L326.51-84.38Q331.49-83.35 336.25-81.45Q341.02-79.54 342.63-78.08L342.63-78.08Q344.09-76.32 344.09-74.27L344.09-74.27Q344.09-74.12 344.02-72.88Q343.95-71.63 342.04-70.31L342.04-70.31Q340.43-69.29 339.11-69.29Q337.79-69.29 334.42-70.61L334.42-70.61Q332.37-71.48 329.30-72.36Q326.22-73.24 323.88-73.83L323.88-73.83Q320.95-74.27 319.26-75.07Q317.58-75.88 316.70-77.20L316.70-77.20Q315.82-78.66 315.82-80.27L315.82-80.27Q315.82-81.01 315.97-81.74Z"/>
    </svg>
        