<svg width="240" height="240" version="1.1" xmlns="http://www.w3.org/2000/svg" xmlns:xlink="http://www.w3.org/1999/xlink"><path d="M117.84 14.64L117.84 14.64L79.92 25.68Q76.32 39.60 75.84 71.28L75.84 71.28Q93.84 75.12 100.56 82.32L100.56 82.32L102.48 84.72Q104.64 94.32 101.52 96.24L101.52 96.24L97.68 95.76L75.60 76.80Q70.32 115.20 45.84 141.60L45.84 141.60Q31.92 156.72 13.92 164.16L13.92 164.16L11.28 163.92L11.28 162.72Q64.56 121.20 64.56 56.88L64.56 56.88Q64.56 28.56 56.88 18.48L56.88 18.48Q56.64 13.20 61.20 13.44L61.20 13.44Q61.92 13.44 72.96 16.32L72.96 16.32Q81.12 18.24 84.96 15.84L84.96 15.84Q100.32 12.48 122.16-0.48L122.16-0.48Q132.24 0.24 142.80 5.76L142.80 5.76Q145.68 7.44 147.12 8.88L147.12 8.88Q147.84 9.60 147.84 13.92L147.84 13.92Q139.20 22.56 136.80 29.04L136.80 29.04Q129.60 48.96 126.72 92.88L126.72 92.88Q125.28 115.68 126.72 127.20L126.72 127.20Q128.40 140.64 136.32 144.72L136.32 144.72Q145.92 149.76 161.04 149.76L161.04 149.76Q176.40 149.76 182.64 145.20L182.64 145.20Q191.28 139.20 200.40 114.48L200.40 114.48Q203.52 114.48 204.24 118.32L204.24 118.32L207.12 138.72L207.12 138.96L209.52 150.48L209.52 151.92Q209.28 159.36 177.60 163.20L177.60 163.20Q170.16 164.16 166.56 164.16L166.56 164.16Q137.28 164.16 122.88 149.28L122.88 149.28Q112.08 138.24 114.24 108.00L114.24 108.00L115.44 93.60L120 18.48Q120 15.36 117.84 14.64Z" stroke="#000" fill="black" /></svg>