<svg width="240" height="240" version="1.1" xmlns="http://www.w3.org/2000/svg" xmlns:xlink="http://www.w3.org/1999/xlink"><path d="M48 28.98L48 28.98Q48 25.62 48.96 25.14L48.96 25.14Q61.44 26.10 71.04 31.14L71.04 31.14Q72.24 31.86 72.96 32.58L72.96 32.58Q77.28 35.94 78 44.34L78 44.34Q78.72 52.26 73.92 51.78L73.92 51.78Q72.96 51.78 71.52 51.30L71.52 51.30Q69.36 50.34 58.08 39.54L58.08 39.54Q56.16 37.38 54.96 36.42L54.96 36.42Q49.92 32.58 48 28.98ZM174.96 177.54L174.96 177.54L180.48 181.62Q182.16 183.78 181.92 185.70L181.92 185.70L180.96 186.66Q150.24 187.86 123.60 192.18L123.60 192.18Q122.64 200.34 120.48 203.22L120.48 203.22Q118.56 202.50 114.96 196.98L114.96 196.98Q112.80 193.62 111.84 182.10L111.84 182.10Q111.60 178.98 111.12 177.06L111.12 177.06Q107.04 154.02 104.64 147.30L104.64 147.30Q104.40 146.58 103.92 145.62L103.92 145.62Q82.80 163.14 64.56 168.66L64.56 168.66L64.56 166.98Q124.32 118.50 150.72 74.58L150.72 74.58Q157.44 64.02 159.36 58.74L159.36 58.74Q159.84 57.30 158.64 55.86L158.64 55.86Q158.16 55.14 157.44 54.90L157.44 54.90Q155.28 54.42 142.80 57.30L142.80 57.30Q131.28 59.70 123.84 58.02L123.84 58.02L109.20 75.06L121.92 81.54Q126.24 84.18 128.16 87.54L128.16 87.54L129.60 90.66L128.88 97.38L127.68 99.30L127.44 99.54L123.60 98.34Q110.16 84.90 106.08 78.66L106.08 78.66L93.60 88.98Q91.44 90.42 89.52 91.38L89.52 91.38L87.36 90.90L87.60 89.22Q134.16 32.82 125.52 16.26L125.52 16.26Q126.48 10.02 135.60 16.50L135.60 16.50Q143.52 21.78 145.20 26.82L145.20 26.82Q144.48 30.18 138.48 37.14L138.48 37.14Q136.56 39.30 135.60 40.74L135.60 40.74L128.40 51.78Q141.36 50.34 154.80 45.54L154.80 45.54Q164.88 41.46 165.60 41.22L165.60 41.22Q169.68 40.26 179.28 44.82L179.28 44.82Q187.44 48.42 186.24 52.26L186.24 52.26Q178.08 58.26 166.32 74.82L166.32 74.82L159.60 84.18Q132.24 119.94 111.12 139.86L111.12 139.86L115.92 141.78Q142.56 136.50 151.44 134.10L151.44 134.10L167.76 128.82Q174 127.86 186 136.26L186 136.26Q188.64 137.94 190.56 139.62L190.56 139.62Q192.96 141.54 192.48 144.18L192.48 144.18L191.76 145.86Q191.28 147.78 186.72 151.86L186.72 151.86L184.80 154.02Q179.28 161.70 174.96 177.54ZM161.04 141.30L118.56 149.70L122.64 184.26L161.28 177.78Q169.20 153.78 168.24 145.14L168.24 145.14Q168.24 144.42 168.24 144.18L168.24 144.18Q167.28 140.82 162.24 141.06L162.24 141.06L161.04 141.30ZM29.76 73.62L29.76 73.62Q41.76 74.82 50.88 82.50L50.88 82.50Q55.20 86.10 56.64 90.18L56.64 90.18Q57.60 92.34 56.88 95.70L56.88 95.70L55.68 98.82Q51.12 105.78 36.72 88.74L36.72 88.74Q31.92 83.22 30.24 80.10L30.24 80.10Q28.56 77.22 29.28 74.58L29.28 74.58Q29.28 74.10 29.76 73.62ZM78.96 104.34L78.96 106.98L51.60 166.74Q48.48 174.18 44.88 185.22L44.88 185.22L42.96 192.18Q42 193.62 38.88 192.90L38.88 192.90Q32.40 187.86 29.52 175.38L29.52 175.38Q28.80 171.78 28.80 169.14L28.80 169.14Q28.80 166.74 33.84 163.38L33.84 163.38Q35.76 162.18 36.48 161.46L36.48 161.46L42.96 154.02Q43.92 152.82 51.60 141.06L51.60 141.06Q52.56 139.38 53.28 138.18L53.28 138.18Q64.08 121.14 76.32 105.54L76.32 105.54Q78.48 104.34 78.96 104.34L78.96 104.34Z" stroke="#000" fill="black" /></svg>