<svg width="240" height="240" version="1.1" xmlns="http://www.w3.org/2000/svg" xmlns:xlink="http://www.w3.org/1999/xlink"><path d="M162.72 140.88L157.44 136.56Q159.60 134.88 174.48 137.04L174.48 137.04Q185.76 138.48 188.88 136.80L188.88 136.80Q190.80 135.36 191.28 130.56L191.28 130.56Q189.12 118.56 171.84 103.92L171.84 103.92Q162.48 95.76 161.52 93.60L161.52 93.60Q161.28 93.12 161.28 92.64L161.28 92.64Q161.28 91.92 174.96 67.20L174.96 67.20Q179.52 58.56 179.52 57.36L179.52 57.36Q179.52 54.72 176.88 54L176.88 54Q162.48 58.32 149.52 66L149.52 66Q145.92 78 147.36 137.52L147.36 137.52Q149.04 199.68 145.92 214.80L145.92 214.80Q144.48 221.76 142.08 223.68L142.08 223.68Q133.92 222 134.64 174.96L134.64 174.96L135.84 94.32Q136.08 81.60 134.64 73.68L134.64 73.68Q132.96 63.12 128.16 56.16L128.16 56.16Q128.40 53.76 131.28 52.80L131.28 52.80Q135.84 51.36 144.24 56.64L144.24 56.64Q145.68 57.60 146.40 57.84L146.40 57.84Q171.12 47.28 181.92 39.36L181.92 39.36Q187.92 39.60 198.48 46.56L198.48 46.56Q204.72 50.88 205.68 53.76L205.68 53.76Q205.92 54.48 205.92 54.96L205.92 54.96Q205.92 56.16 205.20 56.88L205.20 56.88Q204 57.84 196.80 62.16L196.80 62.16Q195.60 62.88 194.64 63.60L194.64 63.60Q187.92 69.12 179.04 81.12L179.04 81.12Q173.52 88.32 173.52 91.20L173.52 91.20Q173.52 93.36 183.36 102.24L183.36 102.24Q201.84 119.04 205.92 131.04L205.92 131.04Q207.60 135.60 207.60 140.16L207.60 140.16Q207.60 148.80 201.84 156L201.84 156L198.96 158.88Q197.04 160.08 194.88 160.32L194.88 160.32Q191.52 160.80 184.80 154.32L184.80 154.32L181.68 151.44L162.72 140.88ZM127.44 113.76L129.84 114.96Q129.12 120.48 60.72 142.56L60.72 142.56Q58.32 143.28 57.36 143.76L57.36 143.76Q47.04 147.12 32.40 155.28L32.40 155.28L29.52 155.28L14.64 144.48Q13.68 141.84 14.88 140.16L14.88 140.16Q15.60 138.72 17.52 138L17.52 138Q26.88 139.20 46.32 134.16L46.32 134.16Q52.32 132.72 55.68 132L55.68 132Q56.88 121.92 51.36 83.76L51.36 83.76Q50.88 80.40 50.40 78.24L50.40 78.24Q49.92 74.64 41.04 52.56L41.04 52.56Q40.08 50.40 40.08 50.16L40.08 50.16Q40.32 42.72 56.40 52.08L56.40 52.08Q59.28 53.52 60.48 54.72L60.48 54.72Q88.08 36.24 92.64 28.56L92.64 28.56L94.08 21.84Q94.32 21.36 94.80 21.12L94.80 21.12Q106.32 21.12 114.96 25.68L114.96 25.68Q119.28 27.84 120 30.72L120 30.72L120.24 32.64L105.84 38.64L72.72 54.96Q67.68 57.12 63.12 58.80L63.12 58.80Q62.40 64.32 62.40 82.32L62.40 82.32Q74.64 81.12 96.96 74.64L96.96 74.64L111.36 70.08Q113.52 69.60 115.44 69.60L115.44 69.60Q121.68 69.60 125.04 74.16L125.04 74.16Q125.04 76.08 120.48 77.52L120.48 77.52Q116.40 78.96 101.04 83.28L101.04 83.28Q106.80 88.80 107.28 91.44L107.28 91.44Q107.52 92.40 107.52 93.12L107.52 93.12L100.56 117.84Q100.32 119.28 100.08 120.48L100.08 120.48Q105.12 120 125.04 114.24L125.04 114.24L127.44 113.76ZM89.52 86.16L89.52 86.16Q73.20 90 63.12 88.80L63.12 88.80L66 129.36Q79.68 125.76 89.52 123.36L89.52 123.36Q91.68 98.88 89.52 86.16Z" stroke="#000" fill="black" /></svg>